Coordinates
version=1
nRows=13
nColumns=38
inDegrees=yes

Units are S.I. units (second, meters, Newtons, ...)
Angles are in degrees.

endheader
time	pelvis_tilt	pelvis_list	pelvis_rotation	pelvis_tx	pelvis_ty	pelvis_tz	hip_flexion_r	hip_adduction_r	hip_rotation_r	knee_angle_r	ankle_angle_r	subtalar_angle_r	mtp_angle_r	hip_flexion_l	hip_adduction_l	hip_rotation_l	knee_angle_l	ankle_angle_l	subtalar_angle_l	mtp_angle_l	lumbar_extension	lumbar_bending	lumbar_rotation	arm_flex_r	arm_add_r	arm_rot_r	elbow_flex_r	pro_sup_r	wrist_flex_r	wrist_dev_r	arm_flex_l	arm_add_l	arm_rot_l	elbow_flex_l	pro_sup_l	wrist_flex_l	wrist_dev_l
      2.07500000	     -1.36805968	     -6.15895949	     87.06372915	     -0.16274809	      1.07846883	     -0.55365424	     -2.85643411	     -0.04869385	      6.34044147	    -77.82398083	     -7.23642734	      0.00000000	      0.00000000	     28.40051334	      2.47282138	     -1.15645108	    -20.12268408	      0.45887556	      0.00000000	      0.00000000	    -13.30508958	     -8.52974083	     16.08869915	      0.00000000	      0.00000000	      0.00000000	     90.00000000	     90.00000000	      0.00000000	      0.00000000	      0.00000000	      0.00000000	      0.00000000	     90.00000000	     90.00000000	      0.00000000	      0.00000000
      2.08000000	     -1.92090157	     -6.07483108	     87.13500078	     -0.16308469	      1.07442464	     -0.55192432	     -1.85037141	     -0.77139681	      6.08089778	    -80.70052835	     -6.77291526	      0.00000000	      0.00000000	     29.02898012	      3.21372024	     -1.40350583	    -22.89157521	      1.18689319	      0.00000000	      0.00000000	    -13.64219071	     -9.18704438	     15.36015251	      0.00000000	      0.00000000	      0.00000000	     90.00000000	     90.00000000	      0.00000000	      0.00000000	      0.00000000	      0.00000000	      0.00000000	     90.00000000	     90.00000000	      0.00000000	      0.00000000
      2.08500000	     -2.47972380	     -5.95764371	     87.20178671	     -0.16335824	      1.07061195	     -0.55017350	     -0.84349873	     -1.50249493	      5.86384962	    -83.49565104	     -6.31870930	      0.00000000	      0.00000000	     29.67231990	      3.94371209	     -1.62429144	    -25.76175252	      2.13705382	      0.00000000	      0.00000000	    -14.02418526	     -9.85152334	     14.63799796	      0.00000000	      0.00000000	      0.00000000	     90.00000000	     90.00000000	      0.00000000	      0.00000000	      0.00000000	      0.00000000	      0.00000000	     90.00000000	     90.00000000	      0.00000000	      0.00000000
      2.09000000	     -3.03779690	     -5.81078638	     87.25689068	     -0.16357212	      1.06693362	     -0.54848531	      0.16998244	     -2.22864754	      5.70011186	    -86.20647160	     -5.87352100	      0.00000000	      0.00000000	     30.29461047	      4.64967332	     -1.82186280	    -28.64087588	      3.28654151	      0.00000000	      0.00000000	    -14.44310973	    -10.51699145	     13.93241133	      0.00000000	      0.00000000	      0.00000000	     90.00000000	     90.00000000	      0.00000000	      0.00000000	      0.00000000	      0.00000000	      0.00000000	     90.00000000	     90.00000000	      0.00000000	      0.00000000
      2.09500000	     -3.58832028	     -5.64459158	     87.29450757	     -0.16373991	      1.06329088	     -0.54687651	      1.20006680	     -2.93686329	      5.59924181	    -88.82942255	     -5.43544117	      0.00000000	      0.00000000	     30.85336801	      5.32106771	     -2.00245984	    -31.43578421	      4.60071244	      0.00000000	      0.00000000	    -14.88730785	    -11.17723800	     13.25096698	      0.00000000	      0.00000000	      0.00000000	     90.00000000	     90.00000000	      0.00000000	      0.00000000	      0.00000000	      0.00000000	      0.00000000	     90.00000000	     90.00000000	      0.00000000	      0.00000000
      2.10000000	     -4.12483007	     -5.47347103	     87.31042121	     -0.16387160	      1.05963281	     -0.54530697	      2.25960551	     -3.61518394	      5.56854433	    -91.35916852	     -5.00147117	      0.00000000	      0.00000000	     31.30491778	      5.95089982	     -2.17461892	    -34.05993968	      6.03782899	      0.00000000	      0.00000000	    -15.34270570	    -11.82643825	     12.59814200	      0.00000000	      0.00000000	      0.00000000	     90.00000000	     90.00000000	      0.00000000	      0.00000000	      0.00000000	      0.00000000	      0.00000000	     90.00000000	     90.00000000	      0.00000000	      0.00000000
      2.10500000	     -4.64173097	     -5.31158681	     87.30183615	     -0.16396296	      1.05597285	     -0.54372195	      3.36240552	     -4.25322015	      5.61200896	    -93.78801306	     -4.56834821	      0.00000000	      0.00000000	     31.61098010	      6.53615566	     -2.34766306	    -36.44007674	      7.55358563	      0.00000000	      0.00000000	    -15.79430775	    -12.45947248	     11.97499109	      0.00000000	      0.00000000	      0.00000000	     90.00000000	     90.00000000	      0.00000000	      0.00000000	      0.00000000	      0.00000000	      0.00000000	     90.00000000	     90.00000000	      0.00000000	      0.00000000
      2.11000000	     -5.13494893	     -5.16901643	     87.26720048	     -0.16399554	      1.05237772	     -0.54209479	      4.52110563	     -4.84256322	      5.72941087	    -96.10592943	     -4.13347023	      0.00000000	      0.00000000	     31.74430974	      7.07750691	     -2.52982792	    -38.52137520	      9.10490594	      0.00000000	      0.00000000	    -16.22773179	    -13.07206866	     11.37902675	      0.00000000	      0.00000000	      0.00000000	     90.00000000	     90.00000000	      0.00000000	      0.00000000	      0.00000000	      0.00000000	      0.00000000	     90.00000000	     90.00000000	      0.00000000	      0.00000000
      2.11500000	     -5.60246757	     -5.05010171	     87.20632002	     -0.16394678	      1.04894301	     -0.54044232	      5.74516986	     -5.37714307	      5.91582717	    -98.30117850	     -3.69570482	      0.00000000	      0.00000000	     31.69163028	      7.57835804	     -2.72639230	    -40.27070846	     10.65277729	      0.00000000	      0.00000000	    -16.63060416	    -13.66071809	     10.80432447	      0.00000000	      0.00000000	      0.00000000	     90.00000000	     90.00000000	      0.00000000	      0.00000000	      0.00000000	      0.00000000	      0.00000000	     90.00000000	     90.00000000	      0.00000000	      0.00000000
      2.12000000	     -6.04439831	     -4.95427921	     87.12080766	     -0.16380316	      1.04576799	     -0.53881011	      7.03939491	     -5.85351372	      6.16169008	   -100.36130398	     -3.25589802	      0.00000000	      0.00000000	     31.45338589	      8.04359862	     -2.93818330	    -41.67758397	     12.16407063	      0.00000000	      0.00000000	    -16.99365310	    -14.22235936	     10.24185601	      0.00000000	      0.00000000	      0.00000000	     90.00000000	     90.00000000	      0.00000000	      0.00000000	      0.00000000	      0.00000000	      0.00000000	     90.00000000	     90.00000000	      0.00000000	      0.00000000
      2.12500000	     -6.46234720	     -4.87838198	     87.01465934	     -0.16356898	      1.04293671	     -0.53724538	      8.40326459	     -6.27094825	      6.45332134	   -102.27421578	     -2.81697646	      0.00000000	      0.00000000	     31.04108248	      8.47850580	     -3.16073873	    -42.75251615	     13.61241513	      0.00000000	      0.00000000	    -17.31136868	    -14.75387583	      9.68003651	      0.00000000	      0.00000000	      0.00000000	     90.00000000	     90.00000000	      0.00000000	      0.00000000	      0.00000000	      0.00000000	      0.00000000	     90.00000000	     90.00000000	      0.00000000	      0.00000000
      2.13000000	     -6.85813114	     -4.81903501	     86.89466032	     -0.16326584	      1.04050727	     -0.53577693	      9.83125162	     -6.63123248	      6.77379859	   -104.02909936	     -2.38363328	      0.00000000	      0.00000000	     30.47350842	      8.88808422	     -3.38425578	    -43.52295071	     14.97827876	      0.00000000	      0.00000000	    -17.58214530	    -15.25149618	      9.10545491	      0.00000000	      0.00000000	      0.00000000	     90.00000000	     90.00000000	      0.00000000	      0.00000000	      0.00000000	      0.00000000	      0.00000000	     90.00000000	     90.00000000	      0.00000000	      0.00000000
      2.13500000	     -7.23225976	     -4.77417625	     86.77040327	     -0.16292427	      1.03850804	     -0.53441069	     11.31392977	     -6.93812776	      7.10400103	   -105.61697775	     -1.96167126	      0.00000000	      0.00000000	     29.77293874	      9.27681855	     -3.59427913	    -44.02738447	     16.24844835	      0.00000000	      0.00000000	    -17.80789241	    -15.71021751	      8.50374367	      0.00000000	      0.00000000	      0.00000000	     90.00000000	     90.00000000	      0.00000000	      0.00000000	      0.00000000	      0.00000000	      0.00000000	     90.00000000	     90.00000000	      0.00000000	      0.00000000
